<svg xmlns="http://www.w3.org/2000/svg" xmlns:xlink="http://www.w3.org/1999/xlink" viewBox="0 0 233.18 170.21"><defs><style>.cls-1,.cls-3,.cls-4,.cls-5,.cls-6,.cls-7,.cls-9{fill:none;}.cls-2{clip-path:url(#clip-path);}.cls-3,.cls-4,.cls-5,.cls-6,.cls-7,.cls-9{stroke:#fff;}.cls-3{stroke-width:3.82px;}.cls-4{stroke-width:0.76px;}.cls-5{stroke-width:3.05px;}.cls-6{stroke-width:4.43px;}.cls-7{stroke-width:2.29px;}.cls-8{fill:#2b2b2a;}.cls-9{stroke-width:1.72px;}</style><clipPath id="clip-path" transform="translate(0 0)"><rect class="cls-1" width="233.18" height="170.21"/></clipPath></defs><title>Asset 1</title><g id="Layer_2" data-name="Layer 2"><g id="Layer_1-2" data-name="Layer 1"><g id="Artwork_1" data-name="Artwork 1"><g class="cls-2"><g class="cls-2"><path class="cls-3" d="M128,1.91H233.18m-1.91-.5-.48,166.49-103.28.41H128c-14.27,0-87.39-8-125.9-83.19C40.65,10,113.77,1.93,128,1.92" transform="translate(0 0)"/></g><path class="cls-4" d="M128,168.3" transform="translate(0 0)"/><g class="cls-2"><path class="cls-5" d="M128,72.3c-14.7-.86-53.21-2.16-89.12-33.31" transform="translate(0 0)"/><path class="cls-5" d="M128,97.33c-14.7.86-53.21,2.16-89.12,33.31" transform="translate(0 0)"/><path class="cls-3" d="M76.41,84.85a33.8,33.8,0,1,0-33.8,33.8A33.8,33.8,0,0,0,76.41,84.85Z" transform="translate(0 0)"/><path class="cls-5" d="M128,48.6c-12.25-.62-43.7-.74-73.63-23.16" transform="translate(0 0)"/><path class="cls-5" d="M128,26.54c-12.25.62-44.35,1.56-74.28,24" transform="translate(0 0)"/><path class="cls-5" d="M57.14,84.85A14.53,14.53,0,1,0,42.61,99.39,14.53,14.53,0,0,0,57.14,84.85Z" transform="translate(0 0)"/><path class="cls-5" d="M128,142.93c-12.25-.63-44.35-1.56-74.28-24" transform="translate(0 0)"/><path class="cls-5" d="M128,120.86c-12.25.63-44.35,1.56-74.28,24" transform="translate(0 0)"/><path class="cls-5" d="M128,25.21c-8.32-.27-30.11-.68-50.43-10.6" transform="translate(0 0)"/><path class="cls-5" d="M128.08,119.44c-8.74-.31-31.64-.76-53-11.6" transform="translate(0 0)"/><path class="cls-5" d="M128,50.07c-8.3.31-30,.78-50.34,12.14" transform="translate(0 0)"/><path class="cls-5" d="M128,144.14c-8.32.27-30.78,1.11-51.1,11" transform="translate(0 0)"/><path class="cls-5" d="M128,73.73c-8.3.3-30.07.75-50.41,12,20.33,9.66,42.17,10,50.51,10.3" transform="translate(0 0)"/></g><path class="cls-4" d="M232.28,23.41" transform="translate(0 0)"/><g class="cls-2"><line class="cls-6" x1="125.91" y1="25.86" x2="230.14" y2="25.86"/><line class="cls-6" x1="126.34" y1="96.6" x2="230.58" y2="96.6"/><line class="cls-6" x1="127.42" y1="73" x2="231.66" y2="73"/><line class="cls-6" x1="126.34" y1="49.31" x2="230.58" y2="49.31"/><line class="cls-6" x1="126.34" y1="120.14" x2="230.58" y2="120.14"/><line class="cls-6" x1="125.8" y1="143.5" x2="230.04" y2="143.5"/><path class="cls-5" d="M87.65,80.52c-2-.21-7.14-.52-12-7.23,4.82-6.72,10-7,12-7.24" transform="translate(0 0)"/></g><path class="cls-4" d="M30.48,79" transform="translate(0 0)"/><g class="cls-2"><path class="cls-5" d="M42.59,71c1.94,5.34,4.65,20.48-11.47,7.24" transform="translate(0 0)"/><path class="cls-5" d="M54.52,91.71c-5.71-1.51-20.3-8.1.15-13.71" transform="translate(0 0)"/><path class="cls-5" d="M42.69,98.44c2-5.35,4.65-20.49-11.47-7.24" transform="translate(0 0)"/></g><line class="cls-7" x1="126.34" y1="119.34" x2="102.51" y2="109.08"/><line class="cls-7" x1="125.83" y1="97.81" x2="102.16" y2="108.59"/><polygon class="cls-8" points="101.08 108.76 103.35 109.73 103.36 107.76 101.08 108.76"/><polygon class="cls-9" points="101.08 108.76 103.35 109.73 103.36 107.76 101.08 108.76"/><line class="cls-7" x1="126.34" y1="142.71" x2="102.51" y2="132.45"/><line class="cls-7" x1="125.83" y1="121.18" x2="102.16" y2="131.96"/><polygon class="cls-8" points="101.08 132.13 103.35 133.1 103.36 131.13 101.08 132.13"/><polygon class="cls-9" points="101.08 132.13 103.35 133.1 103.36 131.13 101.08 132.13"/><line class="cls-7" x1="126.34" y1="95.55" x2="102.51" y2="85.29"/><line class="cls-7" x1="125.83" y1="74.03" x2="102.16" y2="84.8"/><polygon class="cls-8" points="101.08 84.97 103.35 85.94 103.36 83.97 101.08 84.97"/><polygon class="cls-9" points="101.08 84.97 103.35 85.94 103.36 83.97 101.08 84.97"/><line class="cls-7" x1="126.34" y1="72.18" x2="102.51" y2="61.92"/><line class="cls-7" x1="125.83" y1="50.65" x2="102.16" y2="61.43"/><polygon class="cls-8" points="101.08 61.6 103.35 62.57 103.36 60.6 101.08 61.6"/><polygon class="cls-9" points="101.08 61.6 103.35 62.57 103.36 60.6 101.08 61.6"/><line class="cls-7" x1="126.34" y1="48.29" x2="102.51" y2="38.04"/><line class="cls-7" x1="125.83" y1="26.77" x2="102.16" y2="37.54"/><polygon class="cls-8" points="101.08 37.72 103.35 38.69 103.36 36.72 101.08 37.72"/><polygon class="cls-9" points="101.08 37.72 103.35 38.69 103.36 36.72 101.08 37.72"/><g class="cls-2"><line class="cls-7" x1="126.02" y1="167.34" x2="102.17" y2="156.31"/></g><line class="cls-7" x1="125.81" y1="144.42" x2="102.19" y2="155.95"/><polygon class="cls-8" points="101.08 156.14 103.35 157.11 103.36 155.14 101.08 156.14"/><polygon class="cls-9" points="101.08 156.14 103.35 157.11 103.36 155.14 101.08 156.14"/><path class="cls-4" d="M39.79,18.22" transform="translate(0 0)"/><g class="cls-2"><path class="cls-5" d="M87.65,104.12c-2-.21-7.14-.53-12-7.24,4.82-6.71,10-7,12-7.23" transform="translate(0 0)"/></g><path class="cls-4" d="M129.57,167.27" transform="translate(0 0)"/><path class="cls-4" d="M25.33,167.27" transform="translate(0 0)"/><line class="cls-7" x1="126.97" y1="25.34" x2="102.51" y2="14.77"/><g class="cls-2"><line class="cls-7" x1="126.57" y1="2.86" x2="102.18" y2="14.28"/></g><polygon class="cls-8" points="101.08 14.45 103.35 15.42 103.36 13.45 101.08 14.45"/><polygon class="cls-9" points="101.08 14.45 103.35 15.42 103.36 13.45 101.08 14.45"/></g></g></g></g></svg>