<?xml version="1.0" encoding="utf-8"?>
<!-- Generator: Adobe Illustrator 23.0.3, SVG Export Plug-In . SVG Version: 6.00 Build 0)  -->
<svg version="1.1" id="Layer_1" xmlns="http://www.w3.org/2000/svg" xmlns:xlink="http://www.w3.org/1999/xlink" x="0px" y="0px"
	 viewBox="0 0 170.2 233.2" style="enable-background:new 0 0 170.2 233.2;" xml:space="preserve">
<style type="text/css">
	.st0{clip-path:url(#SVGID_2_);}
	.st1{clip-path:url(#SVGID_4_);}
	.st2{fill:none;stroke:#FFFFFF;stroke-width:3.82;}
	.st3{fill:none;stroke:#FFFFFF;stroke-width:0.76;}
	.st4{clip-path:url(#SVGID_6_);}
	.st5{fill:none;stroke:#FFFFFF;stroke-width:3.05;}
	.st6{clip-path:url(#SVGID_8_);}
	.st7{fill:none;stroke:#FFFFFF;stroke-width:4.43;}
	.st8{clip-path:url(#SVGID_10_);}
	.st9{fill:none;stroke:#FFFFFF;stroke-width:2.29;}
	.st10{fill:#2B2B2A;}
	.st11{fill:none;stroke:#FFFFFF;stroke-width:1.72;}
	.st12{clip-path:url(#SVGID_12_);}
	.st13{clip-path:url(#SVGID_14_);}
	.st14{clip-path:url(#SVGID_16_);}
</style>
<title>Asset 1</title>
<g>
	<g id="Layer_1-2">
		<g id="Artwork_1">
			<g>
				<defs>
					<rect id="SVGID_1_" x="0" y="0" width="170.2" height="233.2"/>
				</defs>
				<clipPath id="SVGID_2_">
					<use xlink:href="#SVGID_1_"  style="overflow:visible;"/>
				</clipPath>
				<g class="st0">
					<g>
						<defs>
							<rect id="SVGID_3_" x="0" y="0" width="170.2" height="233.2"/>
						</defs>
						<clipPath id="SVGID_4_">
							<use xlink:href="#SVGID_3_"  style="overflow:visible;"/>
						</clipPath>
						<g class="st1">
							<path class="st2" d="M168.3,128l0,105.2 M168.8,231.3L2.3,230.8L1.9,127.5l0,0.5c0-14.3,8-87.4,83.2-125.9
								c75.1,38.5,83.2,111.7,83.2,125.9"/>
						</g>
					</g>
					<path class="st3" d="M1.9,128"/>
					<g>
						<defs>
							<rect id="SVGID_5_" x="0" y="0" width="170.2" height="233.2"/>
						</defs>
						<clipPath id="SVGID_6_">
							<use xlink:href="#SVGID_5_"  style="overflow:visible;"/>
						</clipPath>
						<g class="st4">
							<path class="st5" d="M97.9,128c0.9-14.7,2.2-53.2,33.3-89.1"/>
							<path class="st5" d="M72.9,128c-0.9-14.7-2.2-53.2-33.3-89.1"/>
							<path class="st2" d="M85.4,76.4c18.7,0,33.8-15.1,33.8-33.8S104,8.8,85.4,8.8S51.6,23.9,51.6,42.6v0
								C51.6,61.3,66.7,76.4,85.4,76.4z"/>
							<path class="st5" d="M121.6,128c0.6-12.2,0.7-43.7,23.2-73.6"/>
							<path class="st5" d="M143.7,128c-0.6-12.2-1.6-44.3-24-74.3"/>
							<path class="st5" d="M85.4,57.1c8,0,14.5-6.5,14.5-14.5s-6.5-14.5-14.5-14.5c-8,0-14.5,6.5-14.5,14.5
								C70.8,50.6,77.3,57.1,85.4,57.1C85.4,57.1,85.4,57.1,85.4,57.1z"/>
							<path class="st5" d="M27.3,128c0.6-12.3,1.6-44.4,24-74.3"/>
							<path class="st5" d="M49.4,128c-0.6-12.2-1.6-44.3-24-74.3"/>
							<path class="st5" d="M145,128c0.3-8.3,0.7-30.1,10.6-50.4"/>
							<path class="st5" d="M50.8,128.1c0.3-8.7,0.8-31.6,11.6-53"/>
							<path class="st5" d="M120.1,128c-0.3-8.3-0.8-30-12.1-50.3"/>
							<path class="st5" d="M26.1,128c-0.3-8.3-1.1-30.8-11-51.1"/>
							<path class="st5" d="M96.5,128c-0.3-8.3-0.8-30.1-12-50.4c-9.7,20.3-10,42.2-10.3,50.5"/>
						</g>
					</g>
					<path class="st3" d="M146.8,232.3"/>
					<g>
						<defs>
							<rect id="SVGID_7_" x="0" y="0" width="170.2" height="233.2"/>
						</defs>
						<clipPath id="SVGID_8_">
							<use xlink:href="#SVGID_7_"  style="overflow:visible;"/>
						</clipPath>
						<g class="st6">
							<line class="st7" x1="144.4" y1="125.9" x2="144.4" y2="230.1"/>
							<line class="st7" x1="73.6" y1="126.3" x2="73.6" y2="230.6"/>
							<line class="st7" x1="97.2" y1="127.4" x2="97.2" y2="231.7"/>
							<line class="st7" x1="120.9" y1="126.3" x2="120.9" y2="230.6"/>
							<line class="st7" x1="50.1" y1="126.3" x2="50.1" y2="230.6"/>
							<line class="st7" x1="26.7" y1="125.8" x2="26.7" y2="230"/>
							<path class="st5" d="M89.7,87.6c0.2-2,0.5-7.1,7.2-12c6.7,4.8,7,10,7.2,12"/>
						</g>
					</g>
					<path class="st3" d="M91.2,30.5"/>
					<g>
						<defs>
							<rect id="SVGID_9_" x="0" y="0" width="170.2" height="233.2"/>
						</defs>
						<clipPath id="SVGID_10_">
							<use xlink:href="#SVGID_9_"  style="overflow:visible;"/>
						</clipPath>
						<g class="st8">
							<path class="st5" d="M99.2,42.6c-5.3,1.9-20.5,4.7-7.2-11.5"/>
							<path class="st5" d="M78.5,54.5c1.5-5.7,8.1-20.3,13.7,0.1"/>
							<path class="st5" d="M71.8,42.7c5.3,2,20.5,4.6,7.2-11.5"/>
						</g>
					</g>
					<line class="st9" x1="50.9" y1="126.3" x2="61.1" y2="102.5"/>
					<line class="st9" x1="72.4" y1="125.8" x2="61.6" y2="102.2"/>
					<polygon class="st10" points="61.4,101.1 60.5,103.4 62.4,103.4 					"/>
					<polygon class="st11" points="61.4,101.1 60.5,103.4 62.4,103.4 					"/>
					<line class="st9" x1="27.5" y1="126.3" x2="37.8" y2="102.5"/>
					<line class="st9" x1="49" y1="125.8" x2="38.2" y2="102.2"/>
					<polygon class="st10" points="38.1,101.1 37.1,103.4 39.1,103.4 					"/>
					<polygon class="st11" points="38.1,101.1 37.1,103.4 39.1,103.4 					"/>
					<line class="st9" x1="74.7" y1="126.3" x2="84.9" y2="102.5"/>
					<line class="st9" x1="96.2" y1="125.8" x2="85.4" y2="102.2"/>
					<polygon class="st10" points="85.2,101.1 84.3,103.3 86.2,103.4 					"/>
					<polygon class="st11" points="85.2,101.1 84.3,103.3 86.2,103.4 					"/>
					<line class="st9" x1="98" y1="126.3" x2="108.3" y2="102.5"/>
					<line class="st9" x1="119.6" y1="125.8" x2="108.8" y2="102.2"/>
					<polygon class="st10" points="108.6,101.1 107.6,103.3 109.6,103.4 					"/>
					<polygon class="st11" points="108.6,101.1 107.6,103.3 109.6,103.4 					"/>
					<line class="st9" x1="121.9" y1="126.3" x2="132.2" y2="102.5"/>
					<line class="st9" x1="143.4" y1="125.8" x2="132.7" y2="102.2"/>
					<polygon class="st10" points="132.5,101.1 131.5,103.3 133.5,103.4 					"/>
					<polygon class="st11" points="132.5,101.1 131.5,103.3 133.5,103.4 					"/>
					<g>
						<defs>
							<rect id="SVGID_11_" x="0" y="0" width="170.2" height="233.2"/>
						</defs>
						<clipPath id="SVGID_12_">
							<use xlink:href="#SVGID_11_"  style="overflow:visible;"/>
						</clipPath>
						<g class="st12">
							<line class="st9" x1="2.9" y1="126" x2="13.9" y2="102.2"/>
						</g>
					</g>
					<line class="st9" x1="25.8" y1="125.8" x2="14.3" y2="102.2"/>
					<polygon class="st10" points="14.1,101.1 13.1,103.4 15.1,103.4 					"/>
					<polygon class="st11" points="14.1,101.1 13.1,103.4 15.1,103.4 					"/>
					<path class="st3" d="M152,39.8"/>
					<g>
						<defs>
							<rect id="SVGID_13_" x="0" y="0" width="170.2" height="233.2"/>
						</defs>
						<clipPath id="SVGID_14_">
							<use xlink:href="#SVGID_13_"  style="overflow:visible;"/>
						</clipPath>
						<g class="st13">
							<path class="st5" d="M66.1,87.7c0.2-2,0.5-7.1,7.2-12c6.7,4.8,7,10,7.2,12"/>
						</g>
					</g>
					<path class="st3" d="M2.9,129.6"/>
					<path class="st3" d="M2.9,25.3"/>
					<line class="st9" x1="144.9" y1="127" x2="155.4" y2="102.5"/>
					<g>
						<defs>
							<rect id="SVGID_15_" x="0" y="0" width="170.2" height="233.2"/>
						</defs>
						<clipPath id="SVGID_16_">
							<use xlink:href="#SVGID_15_"  style="overflow:visible;"/>
						</clipPath>
						<g class="st14">
							<line class="st9" x1="167.4" y1="126.6" x2="155.9" y2="102.2"/>
						</g>
					</g>
					<polygon class="st10" points="155.8,101.1 154.8,103.3 156.8,103.4 					"/>
					<polygon class="st11" points="155.8,101.1 154.8,103.3 156.8,103.4 					"/>
				</g>
			</g>
		</g>
	</g>
</g>
</svg>
